<svg xmlns="http://www.w3.org/2000/svg" viewBox="0 0 1000 820" preserveAspectRatio="xMidYMid meet">
  <defs>
    <linearGradient id="hbg" x1="0" y1="0" x2="1" y2="1">
      <stop offset="0" stop-color="#ECFDF5"/><stop offset="1" stop-color="#D1FAE5"/>
    </linearGradient>
    <linearGradient id="hb" x1="0" y1="0" x2="1" y2="1">
      <stop offset="0" stop-color="#059669"/><stop offset="1" stop-color="#065F46"/>
    </linearGradient>
    <linearGradient id="bar" x1="0" y1="1" x2="0" y2="0">
      <stop offset="0" stop-color="#6EE7B7"/><stop offset="1" stop-color="#059669"/>
    </linearGradient>
    <filter id="soft" x="-30%" y="-30%" width="160%" height="160%">
      <feDropShadow dx="0" dy="14" stdDeviation="22" flood-color="#064E3B" flood-opacity="0.18"/>
    </filter>
    <filter id="hblur" x="-50%" y="-50%" width="200%" height="200%"><feGaussianBlur stdDeviation="60"/></filter>
  </defs>
  <rect x="30" y="30" width="940" height="760" rx="48" fill="url(#hbg)"/>
  <circle cx="850" cy="140" r="180" fill="#6EE7B7" opacity="0.55" filter="url(#hblur)"/>
  <circle cx="150" cy="700" r="200" fill="#A7F3D0" opacity="0.8" filter="url(#hblur)"/>
  <g fill="#059669" opacity="0.1"><circle cx="110" cy="100" r="3.5"/><circle cx="198" cy="100" r="3.5"/><circle cx="286" cy="100" r="3.5"/><circle cx="374" cy="100" r="3.5"/><circle cx="462" cy="100" r="3.5"/><circle cx="550" cy="100" r="3.5"/><circle cx="638" cy="100" r="3.5"/><circle cx="726" cy="100" r="3.5"/><circle cx="814" cy="100" r="3.5"/><circle cx="110" cy="220" r="3.5"/><circle cx="198" cy="220" r="3.5"/><circle cx="286" cy="220" r="3.5"/><circle cx="374" cy="220" r="3.5"/><circle cx="462" cy="220" r="3.5"/><circle cx="550" cy="220" r="3.5"/><circle cx="638" cy="220" r="3.5"/><circle cx="726" cy="220" r="3.5"/><circle cx="814" cy="220" r="3.5"/><circle cx="110" cy="340" r="3.5"/><circle cx="198" cy="340" r="3.5"/><circle cx="286" cy="340" r="3.5"/><circle cx="374" cy="340" r="3.5"/><circle cx="462" cy="340" r="3.5"/><circle cx="550" cy="340" r="3.5"/><circle cx="638" cy="340" r="3.5"/><circle cx="726" cy="340" r="3.5"/><circle cx="814" cy="340" r="3.5"/><circle cx="110" cy="460" r="3.5"/><circle cx="198" cy="460" r="3.5"/><circle cx="286" cy="460" r="3.5"/><circle cx="374" cy="460" r="3.5"/><circle cx="462" cy="460" r="3.5"/><circle cx="550" cy="460" r="3.5"/><circle cx="638" cy="460" r="3.5"/><circle cx="726" cy="460" r="3.5"/><circle cx="814" cy="460" r="3.5"/><circle cx="110" cy="580" r="3.5"/><circle cx="198" cy="580" r="3.5"/><circle cx="286" cy="580" r="3.5"/><circle cx="374" cy="580" r="3.5"/><circle cx="462" cy="580" r="3.5"/><circle cx="550" cy="580" r="3.5"/><circle cx="638" cy="580" r="3.5"/><circle cx="726" cy="580" r="3.5"/><circle cx="814" cy="580" r="3.5"/><circle cx="110" cy="700" r="3.5"/><circle cx="198" cy="700" r="3.5"/><circle cx="286" cy="700" r="3.5"/><circle cx="374" cy="700" r="3.5"/><circle cx="462" cy="700" r="3.5"/><circle cx="550" cy="700" r="3.5"/><circle cx="638" cy="700" r="3.5"/><circle cx="726" cy="700" r="3.5"/><circle cx="814" cy="700" r="3.5"/></g>

  <!-- Main analytics dashboard card -->
  <g filter="url(#soft)">
    <rect x="150" y="150" width="560" height="400" rx="28" fill="#ffffff"/>
    <rect x="150" y="150" width="560" height="66" rx="28" fill="#F1F5F9"/>
    <rect x="150" y="188" width="560" height="28" fill="#F1F5F9"/>
    <circle cx="190" cy="183" r="8" fill="#FCA5A5"/><circle cx="216" cy="183" r="8" fill="#FCD34D"/><circle cx="242" cy="183" r="8" fill="#86EFAC"/>
    <rect x="580" y="170" width="104" height="26" rx="13" fill="url(#hb)"/>
    <rect x="190" y="250" width="200" height="16" rx="8" fill="#0F172A" opacity="0.85"/>
    <rect x="190" y="280" width="130" height="10" rx="5" fill="#94A3B8"/>
    <!-- Bars -->
    <rect x="190" y="430" width="46" height="80" rx="8" fill="url(#bar)"/>
    <rect x="252" y="392" width="46" height="118" rx="8" fill="url(#bar)"/>
    <rect x="314" y="418" width="46" height="92" rx="8" fill="url(#bar)"/>
    <rect x="376" y="352" width="46" height="158" rx="8" fill="url(#bar)"/>
    <rect x="438" y="316" width="46" height="194" rx="8" fill="url(#bar)"/>
    <!-- Trend line -->
    <polyline points="520,470 570,420 610,436 660,360" fill="none" stroke="#059669" stroke-width="7" stroke-linecap="round" stroke-linejoin="round"/>
    <circle cx="660" cy="360" r="10" fill="#059669"/><circle cx="660" cy="360" r="4" fill="#ffffff"/>
    <path d="M646 330h28l-4-8m4 8l-8 4" stroke="#16A34A" stroke-width="0" fill="none"/>
  </g>

  <!-- Growth stat chip -->
  <g filter="url(#soft)">
    <rect x="600" y="96" width="230" height="84" rx="20" fill="#ffffff"/>
    <g transform="translate(624,120) scale(1.6)" fill="none" stroke="#16A34A" stroke-width="2" stroke-linecap="round" stroke-linejoin="round"><path d="M3 17l6-6 4 4 8-8M15 7h6v6"/></g>
    <text x="676" y="132" font-family="Arial, sans-serif" font-size="24" font-weight="700" fill="#0F172A">+248%</text>
    <text x="676" y="158" font-family="Arial, sans-serif" font-size="14" fill="#64748B">Business growth</text>
  </g>

  <!-- Founders / team card -->
  <g filter="url(#soft)">
    <rect x="96" y="590" width="330" height="130" rx="24" fill="#ffffff"/>
    <g transform="translate(160,640)"><circle r="26" fill="#059669"/><circle cx="0" cy="-7" r="9" fill="#ffffff"/><path d="M-14 16a14 11 0 0 1 28 0z" fill="#ffffff"/></g><g transform="translate(220,640)"><circle r="26" fill="#0D9488"/><circle cx="0" cy="-7" r="9" fill="#ffffff"/><path d="M-14 16a14 11 0 0 1 28 0z" fill="#ffffff"/></g><g transform="translate(280,640)"><circle r="26" fill="#065F46"/><circle cx="0" cy="-7" r="9" fill="#ffffff"/><path d="M-14 16a14 11 0 0 1 28 0z" fill="#ffffff"/></g><g transform="translate(340,640)"><circle r="26" fill="#D97706"/><circle cx="0" cy="-7" r="9" fill="#ffffff"/><path d="M-14 16a14 11 0 0 1 28 0z" fill="#ffffff"/></g>
    <rect x="140" y="682" width="180" height="12" rx="6" fill="#0F172A" opacity="0.8"/>
    <rect x="140" y="700" width="120" height="9" rx="4.5" fill="#94A3B8"/>
  </g>

  <!-- Investment / funding card -->
  <g filter="url(#soft)">
    <rect x="560" y="470" width="330" height="230" rx="24" fill="url(#hb)"/>
    <circle cx="640" cy="548" r="44" fill="#ffffff" opacity="0.16"/>
    <g transform="translate(616,524) scale(2)" fill="none" stroke="#ffffff" stroke-width="1.8" stroke-linecap="round" stroke-linejoin="round"><path d="M4 11l4-4 4 3 4-3 4 4M8 7l4 4-2 2a1.5 1.5 0 0 1-2-2M12 10l4 4M14 16l2 2M11 13l2 2"/></g>
    <text x="712" y="540" font-family="Arial, sans-serif" font-size="22" font-weight="700" fill="#ffffff">Funding</text>
    <text x="712" y="566" font-family="Arial, sans-serif" font-size="14" fill="#A7F3D0">Secured round</text>
    <rect x="600" y="614" width="250" height="14" rx="7" fill="#ffffff" opacity="0.35"/>
    <rect x="600" y="614" width="170" height="14" rx="7" fill="#ffffff" opacity="0.9"/>
    <text x="600" y="668" font-family="Arial, sans-serif" font-size="26" font-weight="700" fill="#ffffff">$2.4M raised</text>
  </g>

  <!-- Floating coins -->
  <g filter="url(#soft)">
    <circle cx="900" cy="330" r="34" fill="#FBBF24"/><circle cx="900" cy="330" r="24" fill="#F59E0B"/>
    <text x="900" y="341" text-anchor="middle" font-family="Arial, sans-serif" font-size="30" font-weight="700" fill="#ffffff">$</text>
  </g>
  <g filter="url(#soft)">
    <circle cx="120" cy="260" r="26" fill="#FBBF24"/><circle cx="120" cy="260" r="18" fill="#F59E0B"/>
    <text x="120" y="269" text-anchor="middle" font-family="Arial, sans-serif" font-size="22" font-weight="700" fill="#ffffff">$</text>
  </g>
  <!-- Rocket badge -->
  <g filter="url(#soft)">
    <circle cx="880" cy="720" r="42" fill="#ffffff"/>
    <g transform="translate(856,696) scale(2)" fill="none" stroke="#059669" stroke-width="1.8" stroke-linecap="round" stroke-linejoin="round"><path d="M12 15c-2 0-4-2-4-4 0-4 2-8 4-9 2 1 4 5 4 9 0 2-2 4-4 4zM8 13l-3 2 1 3M16 13l3 2-1 3M12 15v5"/></g>
  </g>
</svg>