<svg xmlns="http://www.w3.org/2000/svg" viewBox="0 0 1200 800" preserveAspectRatio="xMidYMid slice">
  <defs>
    <linearGradient id="bg" x1="0" y1="0" x2="1" y2="1">
      <stop offset="0" stop-color="#064E3B"/><stop offset="1" stop-color="#065F46"/>
    </linearGradient>
    <linearGradient id="shine" x1="0" y1="0" x2="0" y2="1">
      <stop offset="0" stop-color="#ffffff" stop-opacity="0.22"/><stop offset="1" stop-color="#ffffff" stop-opacity="0.05"/>
    </linearGradient>
    <filter id="blur" x="-50%" y="-50%" width="200%" height="200%"><feGaussianBlur stdDeviation="70"/></filter>
  </defs>
  <rect width="1200" height="800" fill="url(#bg)"/>
  <circle cx="1050" cy="120" r="260" fill="#10B981" opacity="0.5" filter="url(#blur)"/>
  <circle cx="120" cy="700" r="300" fill="#064E3B" opacity="0.7" filter="url(#blur)"/>
  <g fill="#ffffff" opacity="0.12"><circle cx="80" cy="64" r="3"/><circle cx="176" cy="64" r="3"/><circle cx="272" cy="64" r="3"/><circle cx="368" cy="64" r="3"/><circle cx="464" cy="64" r="3"/><circle cx="560" cy="64" r="3"/><circle cx="656" cy="64" r="3"/><circle cx="752" cy="64" r="3"/><circle cx="848" cy="64" r="3"/><circle cx="944" cy="64" r="3"/><circle cx="1040" cy="64" r="3"/><circle cx="1136" cy="64" r="3"/><circle cx="80" cy="160" r="3"/><circle cx="176" cy="160" r="3"/><circle cx="272" cy="160" r="3"/><circle cx="368" cy="160" r="3"/><circle cx="464" cy="160" r="3"/><circle cx="560" cy="160" r="3"/><circle cx="656" cy="160" r="3"/><circle cx="752" cy="160" r="3"/><circle cx="848" cy="160" r="3"/><circle cx="944" cy="160" r="3"/><circle cx="1040" cy="160" r="3"/><circle cx="1136" cy="160" r="3"/><circle cx="80" cy="256" r="3"/><circle cx="176" cy="256" r="3"/><circle cx="272" cy="256" r="3"/><circle cx="368" cy="256" r="3"/><circle cx="464" cy="256" r="3"/><circle cx="560" cy="256" r="3"/><circle cx="656" cy="256" r="3"/><circle cx="752" cy="256" r="3"/><circle cx="848" cy="256" r="3"/><circle cx="944" cy="256" r="3"/><circle cx="1040" cy="256" r="3"/><circle cx="1136" cy="256" r="3"/><circle cx="80" cy="352" r="3"/><circle cx="176" cy="352" r="3"/><circle cx="272" cy="352" r="3"/><circle cx="368" cy="352" r="3"/><circle cx="464" cy="352" r="3"/><circle cx="560" cy="352" r="3"/><circle cx="656" cy="352" r="3"/><circle cx="752" cy="352" r="3"/><circle cx="848" cy="352" r="3"/><circle cx="944" cy="352" r="3"/><circle cx="1040" cy="352" r="3"/><circle cx="1136" cy="352" r="3"/><circle cx="80" cy="448" r="3"/><circle cx="176" cy="448" r="3"/><circle cx="272" cy="448" r="3"/><circle cx="368" cy="448" r="3"/><circle cx="464" cy="448" r="3"/><circle cx="560" cy="448" r="3"/><circle cx="656" cy="448" r="3"/><circle cx="752" cy="448" r="3"/><circle cx="848" cy="448" r="3"/><circle cx="944" cy="448" r="3"/><circle cx="1040" cy="448" r="3"/><circle cx="1136" cy="448" r="3"/><circle cx="80" cy="544" r="3"/><circle cx="176" cy="544" r="3"/><circle cx="272" cy="544" r="3"/><circle cx="368" cy="544" r="3"/><circle cx="464" cy="544" r="3"/><circle cx="560" cy="544" r="3"/><circle cx="656" cy="544" r="3"/><circle cx="752" cy="544" r="3"/><circle cx="848" cy="544" r="3"/><circle cx="944" cy="544" r="3"/><circle cx="1040" cy="544" r="3"/><circle cx="1136" cy="544" r="3"/><circle cx="80" cy="640" r="3"/><circle cx="176" cy="640" r="3"/><circle cx="272" cy="640" r="3"/><circle cx="368" cy="640" r="3"/><circle cx="464" cy="640" r="3"/><circle cx="560" cy="640" r="3"/><circle cx="656" cy="640" r="3"/><circle cx="752" cy="640" r="3"/><circle cx="848" cy="640" r="3"/><circle cx="944" cy="640" r="3"/><circle cx="1040" cy="640" r="3"/><circle cx="1136" cy="640" r="3"/><circle cx="80" cy="736" r="3"/><circle cx="176" cy="736" r="3"/><circle cx="272" cy="736" r="3"/><circle cx="368" cy="736" r="3"/><circle cx="464" cy="736" r="3"/><circle cx="560" cy="736" r="3"/><circle cx="656" cy="736" r="3"/><circle cx="752" cy="736" r="3"/><circle cx="848" cy="736" r="3"/><circle cx="944" cy="736" r="3"/><circle cx="1040" cy="736" r="3"/><circle cx="1136" cy="736" r="3"/></g>
  <polyline points="0,620 120,582 240,538 360,488 480,432 600,370 720,302 840,228 960,208 1080,182 1200,150" fill="none" stroke="#ffffff" stroke-opacity="0.35" stroke-width="10" stroke-linecap="round" stroke-linejoin="round"/>
  <rect x="360" y="220" width="480" height="360" rx="36" fill="url(#shine)" stroke="#ffffff" stroke-opacity="0.35" stroke-width="2"/>
  <circle cx="600" cy="360" r="86" fill="#ffffff" opacity="0.95"/>
  <g transform="translate(552,312) scale(4)" fill="none" stroke="#065F46" stroke-width="1.8" stroke-linecap="round" stroke-linejoin="round">
    <path d="M4 11l4-4 4 3 4-3 4 4M8 7l4 4-2 2a1.5 1.5 0 0 1-2-2M12 10l4 4M14 16l2 2M11 13l2 2"/>
  </g>
  <rect x="440" y="486" width="320" height="18" rx="9" fill="#ffffff" opacity="0.85"/>
  <rect x="490" y="522" width="220" height="14" rx="7" fill="#ffffff" opacity="0.5"/>
</svg>