<svg xmlns="http://www.w3.org/2000/svg" viewBox="0 0 64 64">
  <defs>
    <linearGradient id="g" x1="0" y1="0" x2="1" y2="1">
      <stop offset="0" stop-color="#059669"/><stop offset="1" stop-color="#065F46"/>
    </linearGradient>
  </defs>
  <rect width="64" height="64" rx="16" fill="url(#g)"/>
  <path d="M18 44V20h11a7 7 0 0 1 4.6 12.3A7.5 7.5 0 0 1 30.5 44H18zm6-14.5h4.6a2.75 2.75 0 0 0 0-5.5H24v5.5zm0 10h6a3 3 0 0 0 0-6h-6v6z" fill="#fff"/>
  <path d="M40 20h8v4.5h-8zM40 29.75h6.5v4.5H40zM40 39.5h8V44h-8z" fill="#6EE7B7"/>
</svg>
